HIERARCHY
ROOT Hips
{
	OFFSET -1.602300 6.242603 43.997101
	CHANNELS 6 Xposition Yposition Zposition Zrotation Xrotation Yrotation
	JOINT Chest
	{
		OFFSET -0.204900 1.598101 7.917301
		CHANNELS 6 Xposition Yposition Zposition Zrotation Xrotation Yrotation
		JOINT Chest2
		{
			OFFSET 0.000000 0.000000 3.404099
			CHANNELS 6 Xposition Yposition Zposition Zrotation Xrotation Yrotation
			JOINT Neck
			{
				OFFSET 0.000000 0.000000 7.928600
				CHANNELS 6 Xposition Yposition Zposition Zrotation Xrotation Yrotation
				JOINT Head
				{
					OFFSET 0.000000 0.000000 2.173897
					CHANNELS 6 Xposition Yposition Zposition Zrotation Xrotation Yrotation
					End Site
					{
						OFFSET 0.000000 0.000001 10.404503
					}
				}
			}
			JOINT LeftCollar
			{
				OFFSET 2.833800 -1.396299 4.843300
				CHANNELS 6 Xposition Yposition Zposition Zrotation Xrotation Yrotation
				JOINT LeftShoulder
				{
					OFFSET 4.363600 0.000000 0.000000
					CHANNELS 6 Xposition Yposition Zposition Zrotation Xrotation Yrotation
					JOINT LeftElbow
					{
						OFFSET 0.000000 -0.000001 -10.306900
						CHANNELS 6 Xposition Yposition Zposition Zrotation Xrotation Yrotation
						JOINT LeftWrist
						{
							OFFSET 0.000000 -0.000001 -12.404900
							CHANNELS 6 Xposition Yposition Zposition Zrotation Xrotation Yrotation
							End Site
							{
								OFFSET 0.000000 0.000000 -2.173901
							}
						}
					}
				}
			}
			JOINT RightCollar
			{
				OFFSET -2.354800 -1.897200 5.063099
				CHANNELS 6 Xposition Yposition Zposition Zrotation Xrotation Yrotation
				JOINT RightShoulder
				{
					OFFSET -4.375800 0.000000 0.000000
					CHANNELS 6 Xposition Yposition Zposition Zrotation Xrotation Yrotation
					JOINT RightElbow
					{
						OFFSET 0.000000 -0.000001 -10.005001
						CHANNELS 6 Xposition Yposition Zposition Zrotation Xrotation Yrotation
						JOINT RightWrist
						{
							OFFSET 0.000000 -0.000001 -13.174900
							CHANNELS 6 Xposition Yposition Zposition Zrotation Xrotation Yrotation
							End Site
							{
								OFFSET 0.000000 0.000000 -2.173901
							}
						}
					}
				}
			}
		}
	}
	JOINT LeftHip
	{
		OFFSET 2.240600 0.386800 -2.614101
		CHANNELS 6 Xposition Yposition Zposition Zrotation Xrotation Yrotation
		JOINT LeftKnee
		{
			OFFSET 0.000000 -0.000001 -18.592899
			CHANNELS 6 Xposition Yposition Zposition Zrotation Xrotation Yrotation
			JOINT LeftAnkle
			{
				OFFSET 0.000000 -0.000001 -18.765800
				CHANNELS 6 Xposition Yposition Zposition Zrotation Xrotation Yrotation
				End Site
				{
					OFFSET 0.000000 -8.655000 0.000000
				}
			}
		}
	}
	JOINT RightHip
	{
		OFFSET -2.014900 -0.220900 -2.615898
		CHANNELS 6 Xposition Yposition Zposition Zrotation Xrotation Yrotation
		JOINT RightKnee
		{
			OFFSET 0.000000 -0.000001 -18.633900
			CHANNELS 6 Xposition Yposition Zposition Zrotation Xrotation Yrotation
			JOINT RightAnkle
			{
				OFFSET 0.000000 -0.000001 -18.285101
				CHANNELS 6 Xposition Yposition Zposition Zrotation Xrotation Yrotation
				End Site
				{
					OFFSET 0.000000 -7.524500 0.000000
				}
			}
		}
	}
}
MOTION
Frames: 4
Frame Time: 0.041667
-10.674800 23.838606 10.120808 0.489740 4.960908 -11.269698 -0.204899 1.598103 7.917304 -4.282108 13.212169 18.216710 0.000000 0.000001 3.404099 -19.759053 -13.101126 -3.740518 0.000000 -0.000003 7.928603 44.397561 9.056073 -23.429916 0.000000 0.000000 2.173904 4.765068 2.308695 5.702353 2.833805 -1.396300 4.843311 -0.178611 6.148568 20.006963 4.363586 0.000006 -0.000003 -21.640759 -17.461406 -96.435250 -0.000002 0.000002 -10.306896 -96.367303 -166.703348 -171.779818 0.000004 0.000003 -12.404898 -125.035396 186.042250 -135.494561 -2.354800 -1.897201 5.063104 5.212144 9.002049 1.745078 -4.375794 0.000004 -0.000007 55.212821 -25.274032 116.403458 -0.000004 0.000012 -10.005013 -69.285767 -11.152257 -106.288187 -0.000002 0.000005 -13.174891 83.917132 -206.360492 151.807962 2.240596 0.386803 -2.614104 156.728622 -19.361805 104.713309 0.000004 0.000001 -18.592897 -28.920991 55.705780 -24.286846 0.000001 0.000003 -18.765799 -21.023334 46.951530 2.650026 -2.014898 -0.220890 -2.615896 -95.212311 -24.649721 -81.980712 -0.000001 0.000002 -18.633886 157.285897 25.596653 -167.025760 -0.000006 -0.000002 -18.285084 -36.588142 30.194193 -206.637633
-10.692901 23.832205 10.126209 0.465656 4.735409 -11.226498 -0.204898 1.598099 7.917310 -4.289416 13.472532 18.098381 0.000000 0.000001 3.404101 -19.756445 -13.221209 -3.747314 -0.000002 -0.000002 7.928602 44.371108 9.099660 -23.505220 0.000000 -0.000001 2.173906 4.594198 2.268452 5.653176 2.833800 -1.396299 4.843303 -0.539512 6.379091 20.394957 4.363590 0.000004 -0.000003 -21.461271 -17.525348 -96.782729 -0.000001 0.000001 -10.306898 -96.276817 -166.998508 -171.915547 0.000004 0.000004 -12.404899 -124.933381 186.017456 -135.788136 -2.354801 -1.897200 5.063103 5.040641 8.858562 1.462821 -4.375798 0.000001 -0.000006 55.358407 -24.846251 116.698850 -0.000006 0.000012 -10.005013 -69.388090 -10.935187 -106.221408 0.000000 0.000006 -13.174894 84.195312 -206.295646 151.762405 2.240595 0.386803 -2.614107 156.706287 -19.503260 104.618595 0.000004 0.000001 -18.592899 -28.217928 55.415917 -24.884191 0.000001 -0.000000 -18.765795 -21.887140 46.951035 3.432935 -2.014897 -0.220893 -2.615901 -94.964423 -24.875745 -81.565375 0.000000 0.000002 -18.633886 157.133324 25.896292 -167.133609 -0.000007 -0.000000 -18.285084 -36.632477 30.054926 -206.665337
-10.710502 23.822205 10.133503 0.103033 4.497755 -11.176962 -0.204900 1.598100 7.917306 -3.987496 13.842596 18.034237 -0.000000 -0.000001 3.404106 -19.847469 -13.270549 -3.754146 -0.000003 -0.000002 7.928601 44.379421 9.054830 -23.567580 0.000000 0.000000 2.173907 4.591613 2.234171 5.612083 2.833801 -1.396301 4.843309 -0.637696 6.420703 20.443533 4.363589 0.000006 -0.000004 -21.326376 -17.618126 -96.767723 -0.000006 0.000002 -10.306896 -96.125514 -167.209697 -172.016333 0.000000 0.000002 -12.404899 -125.127467 185.919880 -136.206444 -2.354800 -1.897202 5.063106 4.822911 8.627568 1.222363 -4.375800 0.000007 -0.000005 55.593283 -24.526953 116.903373 -0.000004 0.000011 -10.005010 -69.614757 -11.126572 -106.260969 -0.000004 0.000006 -13.174897 84.137166 -206.141229 151.664965 2.240595 0.386802 -2.614103 156.999124 -19.670048 104.460032 0.000005 0.000002 -18.592899 -27.176421 54.993476 -25.743943 0.000001 0.000002 -18.765797 -22.959888 47.004382 4.149583 -2.014900 -0.220895 -2.615899 -94.346236 -25.088791 -81.049306 -0.000000 0.000002 -18.633886 157.412351 26.268165 -167.472851 -0.000007 -0.000001 -18.285082 -36.775678 29.849945 -207.022009
-10.726001 23.813501 10.142609 0.075059 4.275418 -11.036974 -0.204901 1.598100 7.917312 -3.645060 14.292034 17.779373 0.000000 0.000000 3.404102 -20.453737 -13.374568 -3.828899 0.000000 -0.000005 7.928603 44.470805 8.970455 -23.601966 0.000000 -0.000001 2.173907 4.605253 2.235994 5.694866 2.833804 -1.396301 4.843308 -0.205501 6.300476 20.673041 4.363585 0.000007 -0.000004 -21.512260 -17.246953 -96.896731 -0.000002 0.000002 -10.306901 -95.858454 -167.366764 -172.211568 0.000002 0.000004 -12.404896 -125.241668 185.686793 -136.539675 -2.354800 -1.897202 5.063105 4.756185 8.593233 1.022778 -4.375795 0.000004 -0.000009 55.912407 -24.329103 117.151869 -0.000007 0.000012 -10.005014 -69.823596 -11.354804 -106.268202 -0.000005 0.000005 -13.174894 84.092688 -205.932717 151.624011 2.240594 0.386805 -2.614098 157.017142 -19.793408 104.460449 0.000003 0.000000 -18.592897 -25.980971 54.513400 -26.721454 0.000001 0.000002 -18.765797 -24.099967 47.145989 4.687968 -2.014900 -0.220889 -2.615894 -94.165270 -25.052569 -80.592920 -0.000000 0.000002 -18.633886 158.068418 26.622860 -167.951346 -0.000006 -0.000002 -18.285086 -37.106242 29.656599 -206.886184
